<?xml version="1.0" encoding="utf-8"?>
<!-- Generator: Adobe Illustrator 26.5.0, SVG Export Plug-In . SVG Version: 6.00 Build 0)  -->
<svg version="1.1" id="Layer_1" xmlns="http://www.w3.org/2000/svg" xmlns:xlink="http://www.w3.org/1999/xlink" x="0px" y="0px"
	 viewBox="0 0 80 24" style="enable-background:new 0 0 80 24;" xml:space="preserve">
<style type="text/css">
	.st0{fill:#E53012;}
	.st1{fill:#FFFFFF;}
</style>
<g>
	<path class="st1" d="M6.8,11c-1.1,0.4-1.7,1.6-1.3,2.8c0.4,1.1,1.6,1.7,2.7,1.3c0.2-0.1,0.4-0.2,0.5-0.3l4.6,2.2
		c0,0-0.2,0.3-0.3,0.5c-0.3,0.4-0.9,0.7-1.4,0.6H3.4c-0.6,0-1.2-0.3-1.5-0.8C1,16.1,0.5,14.6,0.5,13c0-3.9,3.2-7.1,7-7.1
		c1.9,0,3.7,0.8,5,2.2l-4.1,2.9C7.9,10.8,7.3,10.8,6.8,11z M7.4,11.6c-0.8,0.1-1.3,0.8-1.3,1.6c0.1,0.8,0.8,1.4,1.5,1.3
		c0.8-0.1,1.3-0.8,1.3-1.5C8.8,12.1,8.2,11.5,7.4,11.6C7.4,11.6,7.4,11.6,7.4,11.6z M31.1,5.9H30v12.1h2.3v-3.7
		c0-0.2,0.2-0.5,0.4-0.5c0.3,0,0.6,0.3,1,0.9l1.8,3.3h3l-3.5-6l3.4-3.7h-3L32.3,12V7.2C32.3,6.5,31.8,5.9,31.1,5.9z M48.8,18.1
		l-2.6-9.7h2.4l1.5,6.7l1.2-5.8c0.1-0.5,0.6-0.9,1.2-0.9h1.4l1.3,6.7l1.3-5.8c0.1-0.6,0.6-0.9,1.1-0.9h1.6l-2.6,9.7h-2.5l-1.4-6.7
		l-1.4,6.7L48.8,18.1z M61.6,10.9h-2.3c0.1-0.7,0.4-1.3,1-1.8C61.1,8.6,62,8.3,63,8.3c1.1,0,2,0.2,2.9,0.7c0.7,0.4,1,1.2,1,2v3.2
		c0,0.8-0.1,1.5-0.5,2.2c-0.3,0.5-0.7,0.9-1.2,1.1c-0.5,0.3-1,0.4-1.5,0.5c-0.5,0.1-1,0.1-1.4,0.1c-0.8,0-1.5-0.2-2.2-0.7
		c-0.7-0.6-0.9-1.3-0.9-2.3c0-0.9,0.2-1.6,0.8-2.1c0.6-0.4,1.4-0.7,2.2-0.8c0.1,0,0.8-0.1,1-0.1c1-0.1,1.5-0.4,1.5-0.9
		c0-0.3-0.2-0.6-0.5-0.7c-0.6-0.2-1.2-0.2-1.9,0C62,10.5,61.8,10.7,61.6,10.9L61.6,10.9z M64.6,13.2c-0.4,0.2-0.9,0.4-1.3,0.5
		l-0.8,0.2c-0.3,0.1-1.1,0.2-1.1,1.2c0,0.3,0.1,0.6,0.3,0.8c0.3,0.2,0.6,0.3,0.9,0.3c0.6,0,1.1-0.2,1.5-0.6c0.4-0.4,0.6-1,0.6-1.5
		V13.2z M70.1,18h-2.3V6h1.1c0.3,0,0.6,0.1,0.8,0.3c0.2,0.2,0.3,0.5,0.3,0.8L70.1,18z M26.7,8v-2h1.2c0.5,0,1.1,0.3,1.1,0.8
		C29,7,29,8,29,8L26.7,8z M27.9,8.9c0.6,0,1,0.3,1.1,0.8c0,0.1,0,8.3,0,8.3h-2.3V8.9H27.9z M25.9,13.3c0,3.1-1.4,4.7-4.3,4.7
		c-2.9,0-4.3-1.4-4.3-4.2V6h1.1c0.3,0,0.6,0.1,0.8,0.3c0.2,0.2,0.3,0.5,0.3,0.8v2.8c0.6-0.9,1.6-1.5,2.6-1.5
		C24.7,8.6,25.9,10.2,25.9,13.3L25.9,13.3z M23.5,13.2c-0.1-1.8-0.7-2.7-1.9-2.7s-1.9,0.9-2,2.7c-0.1,1.8,0.6,2.8,1.9,2.8
		S23.5,15.1,23.5,13.2z"/>
	<path class="st1" d="M13.2,8.8l-4,2.8c0.3,0.4,0.5,0.8,0.5,1.3c0,0.4-0.1,0.9-0.3,1.3l4.4,2.1c0.6-1.2,0.8-2.5,0.7-3.8
		C14.4,11.2,14,9.9,13.2,8.8z"/>
	<path class="st1" d="M75.2,18.1c1.1,0,2-0.3,2.7-0.8c0.7-0.5,1.2-1.3,1.5-2.2h-1.7c-0.3,0-0.5,0-0.6,0.2c-0.2,0.2-0.6,0.8-1.6,0.8
		c-0.6,0-1.1-0.2-1.4-0.6c-0.3-0.4-0.5-0.9-0.5-1.6h6c0,0,0-0.6,0-0.6c0-1.5-0.4-2.8-1.1-3.6c-0.8-0.8-1.8-1.3-3.2-1.3
		c-1.3,0-2.3,0.4-3.1,1.3c-0.7,0.8-1.1,2-1.1,3.5c0,1.6,0.4,2.8,1.1,3.6C72.9,17.6,73.9,18.1,75.2,18.1z M74,10.9
		c0.3-0.3,0.7-0.5,1.2-0.5c0.6,0,1,0.2,1.3,0.5c0.3,0.3,0.4,0.8,0.5,1.4h-3.5C73.5,11.7,73.7,11.2,74,10.9z"/>
	<path class="st1" d="M41.9,18.1c1.1,0,2-0.3,2.7-0.8c0.7-0.5,1.2-1.3,1.5-2.2h-1.7c-0.3,0-0.5,0-0.6,0.2c-0.2,0.2-0.6,0.8-1.6,0.8
		c-0.6,0-1.1-0.2-1.4-0.6c-0.3-0.4-0.5-0.9-0.5-1.6h6c0,0,0-0.6,0-0.6c0-1.5-0.4-2.8-1.1-3.6c-0.8-0.8-1.8-1.3-3.2-1.3
		c-1.3,0-2.3,0.4-3.1,1.3c-0.7,0.8-1.1,2-1.1,3.5c0,1.6,0.4,2.8,1.1,3.6C39.6,17.6,40.6,18.1,41.9,18.1z M40.7,10.9
		c0.3-0.3,0.7-0.5,1.2-0.5c0.6,0,1,0.2,1.3,0.5c0.3,0.3,0.4,0.8,0.5,1.4h-3.5C40.2,11.7,40.4,11.2,40.7,10.9z"/>
</g>
</svg>
