<svg xmlns="http://www.w3.org/2000/svg" width="164" height="32" viewBox="0 0 164 32"><title>cartrade</title><path fill="#fff" d="M14.17 20h4.12v.72q0 4.4-1.65 5.68t-7.3 1.29q-6.4 0-7.87-2.04T0 14.78q0-5.2 2-6.85t8.35-1.64q4.62 0 6.18 1.35T18.06 13v.47h-4.08v-.54c0-1.37-.27-2.26-.8-2.64s-1.75-.58-3.65-.58q-3.82 0-4.6.9t-.77 5.4q0 6.04.7 7.16t4.45 1.1q3.07 0 3.97-.61t.92-2.71zM24.52 17.04h-3.7q0-2.64 1.27-3.54c.84-.6 2.52-.9 5.02-.9q4.09 0 5.53 1.1t1.45 4.18v9.63h-3.63l.2-2.02h-.1q-1.05 2.2-4.83 2.2-5.5 0-5.5-4.54t5.61-4.6q3.76 0 4.57 1.68h.06v-2.4q0-1.72-.62-2.29c-.4-.37-1.25-.56-2.55-.56q-2.78 0-2.78 2.06zm2.42 3.87q-3.06 0-3.06 2.04c0 .96.2 1.59.63 1.88s1.31.45 2.67.45q3.3 0 3.3-2.18t-3.52-2.2zM36.5 12.77h3.63l-.23 2.04H40a4.36 4.36 0 0 1 4.1-2.3h-.02q4 0 4 4.9v1.02h-3.43l.06-.79q0-2.36-1.88-2.36-2.7 0-2.7 3.5v8.69H36.5zM84.17 12.77h3.54l-.22 2.04h.08a4.23 4.23 0 0 1 4-2.3h-.01q3.89 0 3.9 4.9v1.02H92.1l.06-.79q0-2.36-1.83-2.36-2.63 0-2.63 3.5v8.69h-3.54zM101.1 17.04h-3.62q0-2.64 1.23-3.54t4.9-.9q3.99 0 5.4 1.1t1.4 4.18v9.63h-3.54l.17-2.02h-.1q-1.01 2.2-4.7 2.2-5.36 0-5.37-4.54t5.5-4.6q3.66 0 4.45 1.68h.06v-2.4c0-1.15-.2-1.91-.61-2.29s-1.23-.56-2.47-.56q-2.7 0-2.7 2.06zm2.35 3.87q-3 0-3 2.04c0 .96.21 1.59.62 1.88s1.28.45 2.6.45q3.23 0 3.23-2.18t-3.45-2.2zM127.08 6.48V27.5h-3.45l.12-2.36h-.06q-1.02 2.55-4.5 2.55t-4.65-1.6q-1.13-1.57-1.13-6.47 0-3.95 1.22-5.48t4.34-1.53q3.62 0 4.51 2.28h.06V6.48zm-6.94 8.92q-1.98 0-2.55.84t-.6 3.6q0 3.21.58 4.14t2.63.92q2.13 0 2.72-.9t.6-4.2q0-2.7-.66-3.57c-.43-.55-1.34-.83-2.72-.83zM140.07 22.79h3.58v.57q0 4.31-6.49 4.3-4.4 0-5.76-1.49t-1.36-6.33q0-4.3 1.42-5.78c.95-.98 2.8-1.48 5.55-1.48 2.64 0 4.4.48 5.3 1.44s1.34 2.86 1.34 5.67v1.08h-10.02c0 .32-.03.54-.03.64q0 2.18.67 2.9t2.69.72q1.94 0 2.55-.42t.56-1.82zm.03-4.17v-.6c0-1.16-.2-1.92-.6-2.27s-1.3-.51-2.66-.51-2.17.2-2.55.63-.6 1.34-.6 2.76zM66.33 0a16 16 0 1 0 16 16 16 16 0 0 0-16-16zm8.2 10.05h-6.3V27.5h-4V10.06h-6.09V6.48h16.4zM146.85 26.4v1.1h-1.02v-1.1zM150.58 25.85h1.02V26l-.06.66c-.13.6-.74.89-1.85.89-.82 0-1.36-.15-1.63-.43s-.4-.89-.4-1.78.13-1.45.4-1.75a2.07 2.07 0 0 1 1.58-.45 2.47 2.47 0 0 1 1.53.34v-.01a1.52 1.52 0 0 1 .39 1.25h-1.02q0-.76-.88-.76c-.4 0-.67.08-.77.24a2.56 2.56 0 0 0-.16 1.19v-.01a2.27 2.27 0 0 0 .18 1.14v-.01c.11.16.4.23.85.23l.12.01c.21 0 .4-.06.57-.17a1.14 1.14 0 0 0 .13-.73zM154.28 23.14c.84 0 1.38.13 1.64.4s.39.83.39 1.68c0 .96-.13 1.59-.39 1.88s-.78.44-1.6.44-1.45-.13-1.71-.4-.39-.9-.39-1.83.12-1.5.38-1.77.81-.4 1.68-.4zm0 .82c-.44 0-.7.08-.83.23a2.06 2.06 0 0 0-.17 1.1v-.01a2.6 2.6 0 0 0 .17 1.23l-.01-.02c.11.17.4.25.84.25s.7-.09.82-.26a2.67 2.67 0 0 0 .17-1.25v.01a1.97 1.97 0 0 0-.19-1.07l.01.01c-.13-.14-.4-.22-.81-.22zM157.16 23.2h1.03l-.03.66a1.3 1.3 0 0 1 1.33-.72q1.16 0 1.3.8a1.27 1.27 0 0 1 1.34-.8h-.01l.19-.01a1.33 1.33 0 0 1 1.31 1.53v-.01 2.85h-1.02v-2.63c0-.6-.25-.91-.76-.91q-.94 0-.95 1.02v2.52h-1.02v-2.67a1.19 1.19 0 0 0-.15-.7.78.78 0 0 0-.6-.17c-.63 0-.95.35-.95 1.02v2.5h-1.02z"/></svg>