<svg xmlns="http://www.w3.org/2000/svg" width="197" height="32" viewBox="0 0 197 32"><title>carwale</title><path fill="#fff" d="M19.67 6.3H35s-5.1 4.15-15.33 4.15S4.34 6.3 4.34 6.3zM19.67 32H35s-5.1-4.17-15.33-4.17S4.3 32 4.3 32zM40.9 8.85c-.75-1.67-1.47-1.81-2.33-1.66-1.17.21-3.94 1.68-8.07 3.1.6 2.59.93 5.57.93 8.62v.25-.01.22c0 3.06-.34 6.03-.98 8.9l.05-.28c4.13 1.42 6.9 2.89 8.06 3.1.86.16 1.6 0 2.34-1.66.53-1.15 1.76-4.58 1.76-10.29S41.43 10 40.9 8.85zM7.85 19.14v-.13c0-2.99.32-5.9.92-8.71l-.05.27c-2.1-.9-4.79-2.05-5.05-2.08-.78-.09-1.42 0-2.09 1.48C1.11 11.01 0 14.07 0 19.14s1.11 8.14 1.58 9.18c.67 1.49 1.33 1.57 2.09 1.48.26 0 2.94-1.17 5.05-2.08a40.42 40.42 0 0 1-.87-8.44v-.15.01zM106.93 6.67c-.52.09-1.04.2-1.55.34a11.9 11.9 0 0 0-4.32 2.14l.03-.02a10.48 10.48 0 0 0-3.02 4.02l-.02.07a15.6 15.6 0 0 0-1.12 6.35v-.03V32h6.75V18.77q0-2.9 1.34-4.24a5.3 5.3 0 0 1 3.53-1.33h.15zM90.74 30.51c-1.2.65-2.6 1.1-4.08 1.25h-.05c-1.15.14-2.49.23-3.84.24h-.21a9.7 9.7 0 0 1-5.7-1.83l.04.02q-2.52-1.82-2.5-6 0-3.9 2.27-5.58a13 13 0 0 1 5.74-2.22h.07c.4-.02.78-.07 1.15-.15h-.04c.43-.09.93-.17 1.49-.23q4.09-.56 4.09-2.41v-.08c0-.86-.62-1.58-1.43-1.73h-.01a9.4 9.4 0 0 0-2.66-.42h-.1c-.8 0-1.57.13-2.28.38l.05-.01c-.67.24-1.2.74-1.48 1.38v.01h-6.23A7.16 7.16 0 0 1 77.6 8.4h.02q2.5-2.14 7.15-2.15 5.2 0 7.81 1.77a6 6 0 0 1 2.67 5.2v8.47q0 3.72-1.34 5.8a8.3 8.3 0 0 1-3.13 3l-.04.02zm-1.5-11.43c-1.03.5-2.24.9-3.5 1.19l-.12.02-2.14.46c-.93.22-1.75.66-2.42 1.25h.01c-.4.57-.65 1.27-.67 2.04v.14a3 3 0 0 0 .84 2.09 3.49 3.49 0 0 0 2.43.74l.3.01a5.5 5.5 0 0 0 3.79-1.5 5.5 5.5 0 0 0 1.48-4.1v.01zM139.56 6.33q-2.5 0-3.08 2.31l-3.58 15.43-3.46-17.74h-3.73q-2.51 0-3.07 2.34l-3.18 15.43-4.07-17.77h-6.55L115.88 32h6.76l3.7-17.8 3.68 17.8h6.75l7.04-25.66zM159.74 30.51c-1.2.65-2.6 1.1-4.1 1.25h-.05c-1.14.14-2.48.23-3.83.24h-.22a9.68 9.68 0 0 1-5.68-1.83l.02.02q-2.5-1.82-2.5-6 0-3.9 2.26-5.58a13 13 0 0 1 5.75-2.22h.07c.4-.02.78-.07 1.15-.15h-.04q.67-.14 1.49-.23 4.09-.56 4.09-2.41v-.08c0-.86-.62-1.58-1.44-1.73-.8-.26-1.72-.41-2.67-.43h-.11c-.8 0-1.55.14-2.26.38l.05-.01c-.68.24-1.21.74-1.5 1.38v.01H144a7.18 7.18 0 0 1 2.58-4.73h.02q2.51-2.14 7.16-2.15 5.2 0 7.8 1.77a6 6 0 0 1 2.67 5.2v8.48q0 3.71-1.33 5.8a8.33 8.33 0 0 1-3.11 3l-.05.02zm-1.5-11.43c-1.02.5-2.23.91-3.49 1.2l-.11.02-2.14.46c-.95.21-1.76.65-2.44 1.24-.39.57-.64 1.27-.66 2.04v.14a3 3 0 0 0 .84 2.09 3.5 3.5 0 0 0 2.43.74h-.01l.31.01a5.5 5.5 0 0 0 3.78-1.5 5.5 5.5 0 0 0 1.49-4.1v.02zM165.97 0h2.96c.85 0 1.62.34 2.18.89.57.53.93 1.28.93 2.12V32h-6.07zM191.49 23.91h4.66a10.22 10.22 0 0 1-3.88 5.94l-.02.02a11.76 11.76 0 0 1-7.29 2.12h.03q-5.3 0-8.27-3.43t-2.98-9.58q0-5.95 2.88-9.29t8.27-3.43q5.58 0 8.67 3.33t2.97 9.57V20.31c0 .2-.03.4-.1.57l.01-.01h-16.1q.08 2.87 1.39 4.27a4.39 4.39 0 0 0 3.64 1.48h-.01.1c.94 0 1.83-.24 2.59-.68l-.03.02c.2-.07.38-.18.52-.33l.5-.5c.17-.31.4-.56.67-.75a2.74 2.74 0 0 1 1.79-.46h-.01zm-11.15-7.25h9.47a6.02 6.02 0 0 0-1.34-3.73l.01.01a4.44 4.44 0 0 0-3.45-1.3h.01-.16a4.5 4.5 0 0 0-3.17 1.3 5.31 5.31 0 0 0-1.38 3.58v.15zM66.35 24.38c-.28.22-.53.47-.74.74l-.52.51c-.14.15-.3.26-.5.33h-.01c-.74.42-1.62.67-2.56.67h-.11a4.38 4.38 0 0 1-3.62-1.48q-1.7-1.82-1.7-6.07t1.68-6.13a4.51 4.51 0 0 1 3.34-1.3h.27c1.24 0 2.35.5 3.16 1.3l.16.19h6.87a12.44 12.44 0 0 0-2.02-3.56l.02.03q-3.06-3.34-8.66-3.34-5.3 0-8.27 3.44T50.28 19q0 6.23 2.97 9.57T61.52 32h.45c2.55 0 4.9-.8 6.84-2.17l-.04.03a10.17 10.17 0 0 0 3.87-5.87l.01-.07H67.84c-.56 0-1.07.17-1.5.47h.01z"/></svg>