<svg xmlns="http://www.w3.org/2000/svg" width="130" height="30" viewBox="0 0 130 30">
    <g fill="none" fill-rule="evenodd">
        <g>
            <g>
                <g>
                    <path d="M0 0H130V30H0z" transform="translate(-993 -737) translate(243 737) translate(750)"/>
                    <g fill="#FFF" fill-rule="nonzero">
                        <path d="M46.04.083v11.705h-2.25V5.866l-3.672 4.407-3.626-4.407v5.922h-2.25V.083h.138l5.738 6.747L45.902.083h.137zm24.694 3.259c.003.251-.043.5-.137.734-.092.268-.232.517-.413.734-.164.219-.366.406-.597.551-.235.145-.505.224-.78.23.301.027.596.105.872.23.287.14.55.326.78.55.225.246.41.524.55.826.142.319.22.662.23 1.01.002.548-.09 1.091-.275 1.607-.19.412-.455.785-.78 1.101-.341.27-.73.473-1.148.597-.463.132-.942.194-1.423.184h-5.416V.036h5.14c.448.001.894.047 1.332.138.404.073.783.246 1.101.505.334.263.588.612.735 1.01.15.538.227 1.094.23 1.653zM64.4 4.838h2.754c.207-.002.41-.049.597-.138.164-.068.306-.18.413-.321.102-.147.194-.3.275-.459.05-.164.08-.334.092-.505-.008-.172-.039-.341-.092-.505-.058-.157-.153-.298-.275-.413-.089-.13-.218-.226-.367-.275-.133-.096-.3-.13-.46-.092h-2.891L64.4 4.838zm3.167 4.957c.192-.002.38-.049.551-.137.172-.097.327-.22.459-.368.133-.15.242-.32.321-.504.075-.174.107-.363.092-.551-.015-.384-.18-.746-.459-1.01-.338-.27-.76-.417-1.193-.413H64.4v2.983h3.167zm8.263 1.974h-2.25V.083h2.25v11.686zM87.12 9.795v1.974h-8.4V.037h2.25v9.73h6.15v.028zm3.994 1.974h-2.25V.083h2.25v11.686zm10.649-9.731h-3.35v9.731h-2.25V2.056h-3.35V.036h8.95v2.002zM113.836.083c-.321.505-.643 1.055-1.01 1.698l-1.193 1.928c-.413.642-.826 1.331-1.194 1.928-.367.596-.734 1.193-1.055 1.744v4.452h-2.25V7.381c-.688-1.24-1.423-2.433-2.203-3.626-.78-1.194-1.515-2.433-2.249-3.626h2.616c.46.826.964 1.652 1.47 2.478.504.826 1.009 1.699 1.468 2.479.23-.367.46-.78.734-1.194l.78-1.285c.276-.413.506-.872.781-1.285.276-.413.505-.826.735-1.193l2.57-.046zM40.072 27.578c-.788.007-1.57-.15-2.295-.46-1.412-.586-2.535-1.708-3.121-3.12-.643-1.463-.643-3.128 0-4.59.586-1.413 1.709-2.536 3.121-3.122 1.456-.597 3.088-.597 4.544 0 .707.298 1.347.735 1.882 1.285.537.537.959 1.177 1.24 1.882.642 1.463.642 3.128 0 4.59-.582 1.4-1.685 2.52-3.076 3.122-.733.278-1.51.418-2.295.413zm0-9.731c-.494-.014-.983.096-1.423.32-.893.418-1.597 1.155-1.974 2.066-.367.945-.367 1.993 0 2.938.189.454.452.873.78 1.24.328.365.737.648 1.194.826.444.215.93.324 1.423.321.494.014.983-.097 1.423-.321.433-.222.834-.5 1.194-.827.328-.366.592-.785.78-1.239.367-.945.367-1.993 0-2.938-.188-.454-.452-.873-.78-1.239-.325-.372-.735-.662-1.194-.844-.44-.225-.93-.335-1.423-.322v.019zm14-6.06c-.774.013-1.542-.144-2.249-.458-.698-.315-1.335-.75-1.882-1.286-.546-.528-.97-1.171-1.24-1.882-.642-1.462-.642-3.127 0-4.59.587-1.412 1.71-2.535 3.122-3.121 1.456-.597 3.088-.597 4.544 0 1.413.586 2.535 1.709 3.122 3.121.642 1.463.642 3.128 0 4.59-.587 1.413-1.71 2.535-3.122 3.122-.714.346-1.5.52-2.295.505zm0-9.73c-.494-.014-.983.096-1.423.32-.442.206-.845.485-1.193.827-.329.366-.592.785-.78 1.24-.368.944-.368 1.992 0 2.937.188.454.451.873.78 1.24.327.365.736.648 1.193.826.444.214.93.324 1.423.32.494.015.983-.096 1.423-.32.442-.206.846-.485 1.194-.827.327-.376.604-.792.826-1.239.367-.945.367-1.993 0-2.938-.188-.454-.452-.873-.78-1.24-.32-.354-.71-.635-1.148-.825-.476-.216-.993-.326-1.515-.322zm-1.377 25.52c-.672.014-1.34-.095-1.974-.32-.561-.222-1.076-.55-1.514-.965-.44-.418-.771-.938-.964-1.514-.237-.632-.361-1.3-.368-1.974v-6.885h2.204v6.885c-.002.488.091.971.275 1.423.177.328.41.623.689.872.254.214.551.371.872.459.535.184 1.117.184 1.652 0 .694-.186 1.268-.675 1.56-1.331.185-.452.278-.935.276-1.423v-6.885h2.158v6.885c.009.672-.1 1.34-.322 1.974-.233.556-.558 1.068-.964 1.514-.446.406-.958.732-1.514.964-.665.226-1.364.334-2.066.322zm14.826-9.73h-3.213v9.73h-2.157v-9.73h-3.26v-1.928h8.63v1.928zm9.64 7.803v1.928h-8.125v-11.66h2.157v9.732h5.968zm6.013 1.928c-.774.012-1.542-.145-2.25-.46-1.412-.586-2.534-1.708-3.12-3.12-.597-1.473-.597-3.119 0-4.59.586-1.413 1.708-2.536 3.12-3.122 1.457-.597 3.089-.597 4.545 0 .698.315 1.335.75 1.882 1.285.521.549.941 1.186 1.24 1.882.596 1.472.596 3.118 0 4.59-.587 1.413-1.71 2.535-3.122 3.122-.734.274-1.512.413-2.295.413zm0-9.731c-.494-.014-.983.096-1.423.32-.893.418-1.597 1.155-1.974 2.066-.413.936-.413 2.003 0 2.938.188.454.452.873.78 1.24.327.365.736.648 1.194.826.443.215.93.324 1.423.321.494.014.983-.097 1.423-.321.444-.222.847-.517 1.193-.872.328-.366.592-.786.78-1.24.368-.945.368-1.993 0-2.937-.188-.455-.452-.874-.78-1.24-.327-.366-.736-.649-1.193-.826-.45-.192-.935-.286-1.423-.275zm13.128 9.73c-.775.013-1.542-.144-2.25-.458-1.412-.587-2.534-1.71-3.12-3.122-.643-1.462-.643-3.127 0-4.59.586-1.412 1.708-2.535 3.12-3.121.71-.31 1.476-.467 2.25-.46.788-.007 1.57.15 2.295.46 1.403.6 2.521 1.718 3.121 3.121.643 1.463.643 3.128 0 4.59-.586 1.413-1.709 2.535-3.121 3.122-.725.31-1.507.466-2.295.459zm0-9.73c-.494-.014-.983.096-1.423.32-.433.222-.834.5-1.194.827-.328.366-.592.785-.78 1.24-.367.944-.367 1.992 0 2.937.188.454.452.873.78 1.24.327.365.736.648 1.194.826.443.215.93.324 1.423.321.493.014.983-.097 1.423-.321.432-.222.833-.5 1.193-.827.328-.366.592-.785.78-1.239.368-.945.368-1.993 0-2.938-.188-.454-.452-.873-.78-1.239-.327-.366-.736-.649-1.193-.826-.444-.215-.93-.325-1.423-.321zm14.688 9.73l-4.728-5.462v5.463h-2.157v-11.66h2.157v5.738l4.499-5.737h2.662l-4.636 5.83 5.05 5.829h-2.847zM19.05.083l-5.371 5.324h8.354v8.354l5.37-5.37V.083M13.68 5.407L8.354.083H0v8.354l5.37 5.37v-8.4h8.309zm0 16.708l5.37 5.37h8.354v-8.353l-5.37-5.37v8.353h-8.354zm-5.325 5.37l5.325-5.37H5.37v-8.354L0 19.131v8.355m20.15-20.15v12.897H7.253V7.335h3.03l3.443 3.443 3.442-3.443h2.984z" transform="translate(-993 -737) translate(243 737) translate(750) translate(8 1)"/>
                    </g>
                </g>
            </g>
        </g>
    </g>
</svg>
